<?xml version="1.0" encoding="utf-8"?>
<!-- Generator: Adobe Illustrator 25.1.0, SVG Export Plug-In . SVG Version: 6.00 Build 0)  -->
<svg version="1.1" id="Layer_2_1_" xmlns="http://www.w3.org/2000/svg" xmlns:xlink="http://www.w3.org/1999/xlink" x="0px" y="0px"
	 viewBox="0 0 1600 1200" style="enable-background:new 0 0 1600 1200;" xml:space="preserve">
<style type="text/css">
	.st0{fill:#98D8F4;}
	.st1{fill:#F696BB;}
	.st2{fill:#F9494B;}
	.st3{fill:#6C79D9;}
	.st4{fill:#FFFFFF;}
</style>
<g id="playblocks">
	<rect x="691.7" y="815.9" class="st0" width="128.1" height="128.1"/>
	<rect x="1075.4" y="815.9" class="st1" width="128.1" height="128.1"/>
	<path class="st2" d="M819.3,815.9V944h62.1c0-36.4,29.6-65.9,66-65.9s65.9,29.5,65.9,65.9h62.1V815.9H819.3z"/>
	<rect x="754.6" y="687.9" class="st3" width="128.1" height="128.1"/>
	<rect x="882.7" y="687.9" class="st1" width="128.1" height="128.1"/>
	<polygon class="st1" points="1010.8,432.1 882.7,432.1 946.7,304 	"/>
	<rect x="1010.8" y="687.9" class="st0" width="128.1" height="128.1"/>
	<rect x="819.3" y="560.1" class="st0" width="128.1" height="128.1"/>
	<rect x="947.4" y="560.1" class="st1" width="128.1" height="128.1"/>
	<rect x="882.7" y="432.1" class="st2" width="128.1" height="128.1"/>
	<g>
		<path d="M755.8,913.6c-19.8,0-35.9-16.1-35.9-35.8c0-1.1,0.9-2,2-2s2,0.8,2,2c0,17.6,14.3,31.9,31.9,31.9
			c17.5,0,31.8-14.3,31.8-31.9c0-1.1,0.9-2,2-2s2,0.9,2,2C791.6,897.5,775.5,913.6,755.8,913.6z"/>
	</g>
	<g>
		<path d="M736.5,869.9c-1.1,0-2-0.9-2-2v-5c0-1.1,0.9-2,2-2s2,0.9,2,2v5C738.5,869,737.6,869.9,736.5,869.9z"/>
	</g>
	<g>
		<path d="M775,869.9c-1.1,0-2-0.9-2-2v-5c0-1.1,0.9-2,2-2s2,0.9,2,2v5C777,869,776.1,869.9,775,869.9z"/>
	</g>
	<g>
		<path d="M1138.8,817.9H754.6c-1.1,0-2-0.9-2-2s0.9-2,2-2h384.2c1.1,0,2,0.9,2,2S1139.9,817.9,1138.8,817.9z"/>
	</g>
	<g>
		<path d="M819.4,946c-1.1,0-2-0.9-2-2V815.8c0-1.1,0.9-2,2-2s2,0.9,2,2V944C821.4,945.1,820.5,946,819.4,946z"/>
	</g>
	<g>
		<path d="M1075.8,689.7H817.7c-1.1,0-2-0.9-2-2s0.9-2,2-2h258.1c1.1,0,2,0.9,2,2S1076.9,689.7,1075.8,689.7z"/>
	</g>
	<g>
		<path d="M1010.8,562.5H882.7c-1.1,0-2-0.9-2-2s0.9-2,2-2h128.1c1.1,0,2,0.9,2,2S1011.9,562.5,1010.8,562.5z"/>
	</g>
	<g>
		<path d="M1010.8,435.2H882.7c-1.1,0-2-0.9-2-2s0.9-2,2-2h128.1c1.1,0,2,0.9,2,2S1011.9,435.2,1010.8,435.2z"/>
	</g>
	<g>
		<path d="M1075.8,946c-1.1,0-2-0.9-2-2V815.8c0-1.1,0.9-2,2-2s2,0.9,2,2V944C1077.8,945.1,1076.9,946,1075.8,946z"/>
	</g>
	<g>
		<path d="M1010.8,817.8c-1.1,0-2-0.9-2-2V687.6c0-1.1,0.9-2,2-2s2,0.9,2,2v128.2C1012.8,816.9,1011.9,817.8,1010.8,817.8z"/>
	</g>
	<g>
		<path d="M947.6,689.6c-1.1,0-2-0.9-2-2V560.4c0-1.1,0.9-2,2-2s2,0.9,2,2v127.2C949.6,688.7,948.7,689.6,947.6,689.6z"/>
	</g>
	<g>
		<path d="M883.5,817.8c-1.1,0-2-0.9-2-2V687.6c0-1.1,0.9-2,2-2s2,0.9,2,2v128.2C885.5,816.9,884.6,817.8,883.5,817.8z"/>
	</g>
	<g>
		<path d="M880.3,657.6c-6.3,0-13.1-1.8-20.1-5.5c-1-0.5-1.4-1.7-0.8-2.7s1.7-1.4,2.7-0.8c21.3,11.2,32.8,0.8,35.8-2.7
			c6.4-7.3,7.2-18,1.9-25.5c-5-6.9-12.3-9.3-21.7-6.9c-7.4,1.9-13.3,6-13.4,6c-0.7,0.5-1.5,0.5-2.2,0.1c-0.7-0.4-1-1.2-0.9-2
			l3.4-22.2c0.1-1,1-1.7,2-1.7h31.1c1.1,0,2,0.9,2,2s-0.9,2-2,2h-29.4l-2.5,16.2c10-5.6,26.8-9.9,36.8,4.1
			c6.4,9.1,5.6,21.6-2.2,30.4C895.6,654.5,888.4,657.6,880.3,657.6z"/>
	</g>
	<g>
		<path d="M883.5,719.8c-0.5,0-1-0.2-1.4-0.6c-0.8-0.8-0.8-2,0-2.8l29.6-29.9c0.8-0.8,2-0.8,2.8,0c0.8,0.8,0.8,2,0,2.8l-29.6,29.9
			C884.5,719.6,884,719.8,883.5,719.8z"/>
	</g>
	<g>
		<path d="M883.5,769.3c-0.5,0-1-0.2-1.4-0.6c-0.8-0.8-0.8-2,0-2.8l78.7-79.4c0.8-0.8,2-0.8,2.8,0c0.8,0.8,0.8,2,0,2.8l-78.7,79.4
			C884.5,769.1,884,769.3,883.5,769.3z"/>
	</g>
	<g>
		<path d="M884.2,818.1c-0.5,0-1-0.2-1.4-0.6c-0.8-0.8-0.8-2,0-2.8l125.8-127.6c0.8-0.8,2-0.8,2.8,0c0.8,0.8,0.8,2,0,2.8
			L885.6,817.5C885.2,817.9,884.7,818.1,884.2,818.1z"/>
	</g>
	<g>
		<path d="M933.2,818.1c-0.5,0-1-0.2-1.4-0.6c-0.8-0.8-0.8-2,0-2.8l77.1-77.9c0.8-0.8,2-0.8,2.8,0c0.8,0.8,0.8,2,0,2.8l-77.1,77.9
			C934.2,817.9,933.7,818.1,933.2,818.1z"/>
	</g>
	<g>
		<path d="M982.2,818.1c-0.5,0-1-0.2-1.4-0.6c-0.8-0.8-0.8-2,0-2.8l28.1-28.4c0.8-0.8,2-0.8,2.8,0c0.8,0.8,0.8,2,0,2.8l-28.1,28.4
			C983.2,817.9,982.7,818.1,982.2,818.1z"/>
	</g>
	<g>
		<path d="M963.1,542.4c-0.6,0-1.2-0.3-1.5-0.7l-22.1-26.8l-23,17.3c-0.7,0.5-1.7,0.5-2.4,0c-0.7-0.5-1-1.4-0.7-2.3l9.7-27.9
			L901.4,485c-0.7-0.5-0.9-1.4-0.7-2.2c0.3-0.8,1-1.4,1.9-1.4l25.9-0.6l3.5-28.5c0.1-0.9,0.8-1.6,1.7-1.7c0.9-0.1,1.7,0.3,2.1,1.1
			l12.3,25.2l22.8-19.2c0.7-0.6,1.7-0.6,2.4-0.1c0.7,0.5,1.1,1.4,0.8,2.3l-9.8,28.9l27.4,9.1c0.9,0.3,1.4,1.1,1.4,2
			c0,0.9-0.7,1.7-1.6,1.9l-30.9,7.1l4.6,31.3c0.1,0.9-0.3,1.8-1.2,2.1C963.6,542.3,963.4,542.4,963.1,542.4z M939.8,510.1
			c0.6,0,1.2,0.2,1.5,0.7l18.7,22.7l-3.8-26c-0.2-1,0.5-2,1.5-2.2l25.7-5.9L961,492c-0.5-0.2-0.9-0.5-1.2-1c-0.2-0.5-0.3-1-0.1-1.5
			l8.2-24l-19.3,16.2c-0.5,0.4-1.1,0.6-1.7,0.4c-0.6-0.1-1.1-0.5-1.4-1.1l-10.4-21.4l-2.9,23.5c-0.1,1-0.9,1.7-1.9,1.8l-22,0.5
			l18.5,14.3c0.7,0.5,0.9,1.4,0.7,2.2l-8,23.1l19.3-14.5C939,510.2,939.4,510.1,939.8,510.1z M930.2,482.8L930.2,482.8L930.2,482.8z
			"/>
	</g>
</g>
<g id="girl">
	<path d="M1083.2,709.2c-0.2,0-3.9-0.3-9.2-4.7c-4.9-4-12.2-12.4-18.9-29.5l-0.1-0.2h0.3c0.1,0,14.9-1.5,28-3.4h0.2v0.2
		c0,0.2,4,16.5,4,25.4C1087.4,709.1,1083.3,709.2,1083.2,709.2L1083.2,709.2z"/>
	<path d="M1376,848c-1.6-13.7-3.4-25-5.1-35.9c-2.4-15.2-4.7-29.5-5.9-47.1v-0.1l0.1-0.1c0.3-0.2,27.7-18.6,51.1-25
		c6-1.6,11.7-1.9,16.7-1.9c16,0,21.4,7.9,21.5,8s5.4,10.1,0.8,26.2c-9.1,31.9-47.9,59-78.9,76.1l-0.3,0.1L1376,848z"/>
	<g>
		<path class="st4" d="M1286.6,942.2l10.4-128.8l2-30.5c7.1-6,51.1-42.8,57.3-47.4c0.5-0.3,0.9-0.5,1.2-0.5c2.6,0,5.7,12.4,5.9,30.1
			v0.1c1.2,17.7,3.5,32,5.9,47.2c1.7,10.9,3.5,22.2,5.1,35.9c4.2,35.3,4.8,63.5,2.1,94L1286.6,942.2L1286.6,942.2z"/>
		<path d="M1357.2,737.2c0.7,1.1,2.3,4.5,3.3,13.7c0.8,6.9,0.9,13.3,0.9,14.1v0.1v0.1c1.2,17.8,3.5,32.2,5.9,47.4
			c1.7,10.9,3.5,22.1,5.1,35.8c4.1,34.4,4.8,62.1,2.3,91.8h-85.9l10.2-126.7l0,0l0,0l1.9-29.6
			C1309.5,776.6,1350.3,742.5,1357.2,737.2 M1357.4,732.9c-0.8,0-1.6,0.3-2.4,0.9c-6.8,5.1-57.5,47.6-58,48l-0.1,0.1l-2,31.3
			l-10.5,131h93.9V944c2.8-31.3,2.2-60-2-96c-1.6-13.7-3.4-25-5.1-35.9c-2.4-15.2-4.7-29.5-5.9-47.1
			C1365.4,763.7,1364.9,732.9,1357.4,732.9L1357.4,732.9z"/>
	</g>
	<g>
		<path class="st4" d="M1153,942.2c0.3-3.3,2.1-11,11.3-18.8c14.5-12.3,22.6-23.1,23.6-45.3c0.2-3.7,0.2-13,0.1-27.7l4.7-23.1
			l115.6-46.6l-0.4,23.8v0.1c3.1,59.2-4.9,126.6-6.2,137.6L1153,942.2L1153,942.2z"/>
		<path d="M1306.3,783.7l-0.4,20.7v0.1v0.1c3,56.5-4.2,120.4-6,135.5h-144.5c0.8-3.6,3.2-9.4,10.2-15.3c14.6-12.3,23.3-24,24.3-46.7
			c0.2-3.7,0.2-13,0.1-27.6l4.4-21.8L1306.3,783.7 M1310.4,777.7L1191,825.9l-4.9,24.3c0.1,14.8,0.1,24.1-0.1,27.8
			c-1,21.4-8.8,31.9-22.9,43.9c-12.9,10.9-12.1,22.1-12.1,22.2v0.2h152.5v-0.2c0.1-0.7,9.9-74.8,6.5-139.6L1310.4,777.7
			L1310.4,777.7z"/>
	</g>
	<path class="st3" d="M1324.9,944.2V944c4.9-27,27.4-47.9,54.7-50.8h0.2v0.2c0.5,16.8,0,33.9-1.5,50.7v0.2h-53.4V944.2z"/>
	<path class="st3" d="M1245,944.2V944c5.3-29.6,31.1-51.2,61.2-51.2c0.6,0,1.1,0,1.7,0h0.6v0.2c-2.1,29.4-4.9,50.7-4.9,51v0.2H1245z
		"/>
	<path class="st3" d="M1151,944.2V944c0-0.1-0.9-11.2,12.1-22.2c9.4-8,16.5-15.6,20.1-26.9l0.1-0.3l0.2,0.2
		c15.7,12.3,27.2,29.8,32.2,49.1l0.1,0.3L1151,944.2L1151,944.2z"/>
	<circle cx="1260.6" cy="411.4" r="44.3"/>
	<g>
		<path class="st4" d="M1262.5,544.5c-12.7,0-23-10.3-23-23s10.3-23,23-23s23,10.3,23,23S1275.2,544.5,1262.5,544.5z"/>
		<path d="M1262.5,500.6c11.6,0,21,9.4,21,21s-9.4,21-21,21s-21-9.4-21-21S1250.9,500.6,1262.5,500.6 M1262.5,496.6
			c-13.8,0-25,11.2-25,25c0,13.8,11.2,25,25,25s25-11.2,25-25S1276.3,496.6,1262.5,496.6L1262.5,496.6z"/>
	</g>
	<g>
		<path d="M1266.5,526.3c-0.2,0-0.4,0-0.6-0.1l-16.9-5.3c-1.1-0.3-1.6-1.5-1.3-2.5c0.3-1.1,1.5-1.6,2.5-1.3l16.9,5.3
			c1.1,0.3,1.6,1.5,1.3,2.5C1268.1,525.8,1267.4,526.3,1266.5,526.3z"/>
	</g>
	<g>
		<path class="st4" d="M1216.4,555c-17.3,0-34.8-17.2-43.4-42.8c-11.1-33.2-7.3-64.2,9-72.1c6.3-3.1,13.1-4.6,20.4-4.6
			c21.4,0,39.7,13.5,39.9,13.6c11.2,8.7,16.7,17.9,17.8,29.7c1.2,13.2-3.2,29.9-13.8,52.4C1239.1,546.5,1228.5,555,1216.4,555z"/>
		<path d="M1202.5,437.4c20.4,0,38,12.7,38.7,13.2c18.5,14.4,25.5,32.7,3.3,79.7c-6.9,14.6-16.9,22.7-28.1,22.7
			c-16.5,0-33.1-16.7-41.5-41.5c-5.4-16.1-7.4-32.2-5.6-45.4c1.7-12.2,6.5-20.9,13.6-24.3C1189,438.9,1195.5,437.4,1202.5,437.4
			L1202.5,437.4 M1202.5,433.4c-6.9,0-14.1,1.3-21.3,4.8c-17,8.3-21.7,39.8-10,74.6c9.2,27.4,27.6,44.2,45.3,44.2
			c12,0,23.6-7.7,31.7-25c21.9-46.4,17-67.9-4.5-84.6C1243.6,447.4,1224.9,433.4,1202.5,433.4L1202.5,433.4z"/>
	</g>
	<path d="M1243.6,447.4c17.5,13.6,24.1,30.3,14.1,61.1c-0.7,2.1-1.4,4.2-2.2,6.4c-29.7-15.4-30.6-62.6-30.6-62.6
		c-29.6,21-60,18.3-60,18.3c1.1-15.7,6.7-27.7,16.3-32.4C1211.5,423.4,1243.6,447.4,1243.6,447.4z"/>
	<g>
		<path d="M1193,509.6c-0.3,0-0.6-0.1-0.9-0.2c-1.9-1-3.6-2.6-4.7-4.7c0,0,0-0.1-0.1-0.1c-1.5-3-1.5-8.6-0.2-19.1
			c0.1-1.1,1.1-1.9,2.2-1.7c1.1,0.1,1.9,1.1,1.7,2.2c-1.2,9.1-1.2,14.6-0.2,16.8c0.8,1.3,1.8,2.4,3.1,3.1c1,0.5,1.3,1.7,0.8,2.7
			C1194.4,509.2,1193.7,509.6,1193,509.6z"/>
	</g>
	<g>
		<path d="M1205.9,494.1c-1.1,0-2-0.9-2-2v-2.6c0-1.1,0.9-2,2-2s2,0.9,2,2v2.6C1207.9,493.2,1207,494.1,1205.9,494.1z"/>
	</g>
	<g>
		<path d="M1177.5,487.8c-1.1,0-2-0.9-2-2v-2.6c0-1.1,0.9-2,2-2s2,0.9,2,2v2.6C1179.5,486.9,1178.6,487.8,1177.5,487.8z"/>
	</g>
	<g>
		<path d="M1201.5,522.7c-0.2,0-0.3,0-0.5,0c-0.5,0-1.1-0.1-1.6-0.2l-0.2,0c-1.1-0.2-1.8-1.2-1.6-2.3s1.2-1.8,2.3-1.6l0.3,0
			c0.4,0.1,0.7,0.1,1,0.1c3.6,0.2,6.5-2.6,6.7-6.1c0-1.1,1-2,2.1-1.9c1.1,0,2,1,1.9,2.1C1211.6,518.3,1207,522.7,1201.5,522.7z"/>
	</g>
	<g>
		<path class="st4" d="M1019.4,675c-22.8,0-37.7-3.1-42.2-8.7c-1.3-1.7-1.7-3.6-1.1-5.8l0.5-2.1l-2.1-0.4c-0.9-0.2-9-2-7.4-10.7
			l0.2-1.4l-1.2-0.7c0,0-4-2.5-4-6.3c0-1,0.4-3.5,3.9-5.2l2.7-1.4l-2.3-2c0,0-2.7-2.4-2.3-5.2c0.7-4.6,5.3-6.3,17-6.3h21l-5.9-3.7
			c-2.6-1.6-3.8-3.6-3.4-5.9c0.4-2.9,3.2-5.5,6.9-6.5c6.2-1.7,13.5-3,23.7-4.7c9-1.5,20.3-3.4,34.9-6.3l23.4-2.9
			c5.9,3.6,54.7,34,60.3,62.3c-4.7,2.9-33.4,11.4-59.2,18.2c-13.1,1.9-27.7,3.3-27.8,3.4C1054.8,673,1037.6,675,1019.4,675z"/>
		<path d="M1081.3,591.1c7.7,4.7,51.9,32.9,58.5,59.2c-7.1,3.2-33.4,11-57.3,17.3c-13,1.9-27.5,3.3-27.6,3.3l0,0l0,0
			c-0.2,0-17.2,1.9-35.3,1.9c-10.3,0-35-0.8-40.6-7.9c-0.9-1.2-1.2-2.5-0.8-4.1l1-4.1l-4.2-0.8c0,0-2.1-0.4-3.8-1.8
			c-1.9-1.5-2.6-3.6-2.1-6.6l0.5-2.7l-2.4-1.4c0,0-3.1-2-3.1-4.6c0-0.6,0.3-2.2,2.8-3.4l5.4-2.7l-4.6-3.9c-0.3-0.3-1.8-1.9-1.6-3.4
			c0.4-2.7,3.1-4.6,15-4.6h14h13.9l-11.8-7.4c-1.3-0.8-2.8-2.1-2.5-3.9c0.2-1.7,2.1-3.9,5.5-4.9c6.1-1.7,13.4-2.9,23.5-4.6
			c9-1.5,20.3-3.4,34.9-6.3L1081.3,591.1 M1082.2,587l-24.2,3c-31.2,6.3-46.8,7.7-58.8,11c-8.2,2.3-12,11-4,16h-14c-10,0-18,1-19,8
			c-0.6,4,3,7,3,7c-4,2-5,5-5,7c0,5,5,8,5,8c-2,11,9,13,9,13c-3.3,13.9,22,17,45.2,17c18.6,0,35.8-2,35.8-2s14.8-1.5,28-3.4
			c0,0,61.5-16.3,61-19.6C1139,620.5,1082.2,587,1082.2,587L1082.2,587z"/>
	</g>
	<path class="st3" d="M1186.1,850.2c-0.4-57.1-2.9-174.4-3.1-181.8c-2.2,1.4-15.7,9.9-33.6,18.8c-17.9,8.9-44,20-66.2,22
		c-0.2,0,7.7-1-0.2-37.7c-10.9-46.9-25-81.1-25.2-81.4l-0.1-0.2h0.2c17.6-3.5,35.2-8.2,52.2-14c21.7-7.4,39.5-18.3,55.2-27.9
		c21.1-12.9,39.3-24.1,60.9-24.1c35.2,0,58.9,19.8,88.2,54.1c40.4,47.4,138.9,166.2,140,167.8c-1.2-0.7-16.1-24.5-89.3,19.7
		c-7.8,5.2-15.1,10.7-22.7,16.4c-18.8,14.1-38.2,28.6-70,43.4c-47.4,22.1-85.6,25.2-86,25.2h-0.2L1186.1,850.2z"/>
	<g>
		<path d="M1012.2,637C1012.2,637,1012.2,637,1012.2,637c-14.9-0.1-29.8-1.1-44.6-3c-1.1-0.1-1.9-1.1-1.7-2.2
			c0.1-1.1,1.1-1.9,2.2-1.7c14.5,1.9,29.4,2.9,44.1,3c1.1,0,2,0.9,2,2C1014.2,636.1,1013.3,637,1012.2,637z"/>
	</g>
	<g>
		<path d="M1011.2,651c-14.5,0-29-1-43.3-3c-1.1-0.2-1.9-1.2-1.7-2.3c0.2-1.1,1.2-1.9,2.3-1.7c14.7,2.1,29.8,3.1,44.7,3c0,0,0,0,0,0
			c1.1,0,2,0.9,2,2c0,1.1-0.9,2-2,2C1012.5,651,1011.9,651,1011.2,651z"/>
	</g>
	<g>
		<path d="M1014.2,664C1014.2,664,1014.2,664,1014.2,664c-16.5-0.6-29.1-2.1-36.6-2.9L977,661c-1.1-0.1-1.9-1.1-1.8-2.2
			c0.1-1.1,1.1-1.9,2.2-1.8l0.6,0.1c7.9,0.9,19.9,2.3,36.2,2.9c1.1,0,2,1,1.9,2.1C1016.2,663.2,1015.3,664,1014.2,664z"/>
	</g>
	<g>
		<path d="M1008.9,621.2c-6.5,0-8.7-0.2-8.9-0.2c-1.1-0.1-1.9-1.1-1.8-2.2c0.1-1.1,1-1.9,2.2-1.8c0.1,0,5.2,0.4,21.8,0c0,0,0,0,0,0
			c1.1,0,2,0.9,2,2c0,1.1-0.8,2-2,2C1016.5,621.1,1012.2,621.2,1008.9,621.2z"/>
	</g>
	<g>
		<path d="M1183.2,670c-0.7,0-1.3-0.3-1.7-0.9c-0.6-0.9-0.3-2.2,0.6-2.8c23.6-14.8,37.7-25.8,37.8-25.9c0.9-0.7,2.1-0.5,2.8,0.3
			s0.5,2.1-0.3,2.8c-0.1,0.1-14.4,11.2-38.2,26.1C1183.9,669.9,1183.6,670,1183.2,670z"/>
	</g>
	<g>
		<path d="M1155.7,683c-0.5,0-1.1-0.2-1.5-0.6c-6.4-6.8-25.2-5.8-31.9-4.8c-1,0.2-2-0.5-2.2-1.5c-0.2-1,0.3-2,1.3-2.4
			c16.8-5.9,31-18,33.8-28.9c1.3-5,0.1-9.6-3.4-13.5c-3.3-3.7-7.2-5.5-12-5.5c0,0,0,0-0.1,0c-16,0-34.8,20.3-35,20.5
			c-0.6,0.6-1.5,0.8-2.2,0.5c-0.8-0.3-1.3-1.1-1.2-1.9c0.5-16.1-4.3-28.2-12.8-32.4c-6-3-13.3-1.5-19.9,4c-0.9,0.7-2.1,0.6-2.8-0.3
			s-0.6-2.1,0.3-2.8c7.9-6.5,16.8-8.2,24.2-4.5c9.2,4.5,14.5,15.7,15,31.2c6.5-6.2,20.9-18.3,34.4-18.3c0,0,0.1,0,0.1,0
			c5.9,0,10.9,2.3,15,6.8c4.4,4.9,5.9,10.9,4.3,17.2c-2.5,9.8-12.5,20-25.7,27c0,0,0,0,0.1,0c8.2,0,18.6,1.2,23.8,6.8
			c0.8,0.8,0.7,2.1-0.1,2.8C1156.7,682.8,1156.2,683,1155.7,683z"/>
	</g>
	<g>
		<path d="M1085.1,682.7c-0.6,0-1.3-0.3-1.7-0.9c-0.6-0.9-0.4-2.2,0.6-2.8c5.4-3.6,7.5-8.4,5.7-12.9c-1.6-3.8-5.4-5.9-9.2-5.2
			c-1.1,0.2-2.1-0.5-2.4-1.6c-0.2-1.1,0.5-2.1,1.6-2.4c5.6-1.1,11.4,2.1,13.7,7.6c2,4.9,1.2,12.2-7.2,17.7
			C1085.9,682.6,1085.5,682.7,1085.1,682.7z"/>
	</g>
	<g>
		<path d="M1231.2,843c-0.4,0-0.7-0.1-1.1-0.3c-11.7-7.3-17.7-19.1-20.3-25.6c-3.3,5.4-10.6,13.6-23.7,12.9c-1.1-0.1-1.9-1-1.9-2.1
			c0.1-1.1,1-1.9,2.1-1.9c16.2,0.9,21.8-14,22-14.7c0.3-0.8,1.1-1.4,2-1.3c0.9,0,1.6,0.6,1.8,1.5c0,0.2,5,18.4,20.1,27.8
			c0.9,0.6,1.2,1.8,0.6,2.8C1232.5,842.7,1231.9,843,1231.2,843z"/>
	</g>
	<g>
		<path d="M1259.2,833c-0.1,0-0.2,0-0.3,0c-1.1-0.2-1.9-1.2-1.7-2.3c2.8-19.8-13.4-39.2-13.5-39.4c-0.5-0.6-0.6-1.6-0.2-2.3
			s1.3-1.1,2.1-1c0.4,0.1,36.6,6.5,47.9-5c2.9-2.9,3.8-6.7,2.8-11.7c-3-14.9-37.5-14.4-50.6-12.9c-0.8,0.1-1.7-0.4-2-1.1
			c-0.4-0.8-0.2-1.7,0.4-2.3c0.3-0.3,25.4-25.5,22.3-43c-1-5.4-4.5-9.4-10.9-12.3c-4.5-2.1-8.9-2.1-13.4-0.1
			c-16.9,7.4-27.8,40.6-27.9,40.9c-0.3,0.9-1.2,1.5-2.2,1.4c-1-0.2-1.7-1-1.7-2c0-0.1-0.1-8.8-3.4-17.4c-4.3-11-11.9-16.6-22.6-16.6
			c-1.1,0-2-0.9-2-2s0.9-2,2-2c20.6,0,27.1,18.2,29.1,29.4c4.5-10.9,13.9-29.6,27.1-35.4c5.5-2.4,11.1-2.4,16.7,0.1
			c7.5,3.4,12,8.6,13.2,15.2c2.8,15.3-12.5,34.6-19.8,42.7c13.1-0.8,46.2-1.1,49.7,16.5c1.2,6.3-0.1,11.4-3.9,15.3
			c-10.1,10.3-35.7,8.3-46.5,6.8c4.9,7,13.7,22.4,11.4,38.6C1261,832.3,1260.2,833,1259.2,833z"/>
	</g>
	<g>
		<path d="M1210.4,789.6c-0.7,0-1.4-0.1-2.1-0.2c-7-1.4-10.9-9.2-10.6-15.9c0.3-6.6,4.4-11.2,10.7-11.8c0,0,0,0,0,0
			c8-0.8,11.5,3.1,12.9,5.5c2.8,4.8,2.1,12-1.5,17.1C1217.5,787.7,1214.1,789.6,1210.4,789.6z M1208.9,765.6c-6.2,0.6-7.1,5.8-7.2,8
			c-0.2,5,2.7,10.9,7.3,11.8c3.9,0.7,6.4-1.9,7.6-3.5c2.7-3.8,3.3-9.3,1.3-12.8C1216.3,766.4,1213.2,765.2,1208.9,765.6z"/>
	</g>
	<g>
		<path d="M1340.8,744.9c-2.8,0-5.7-0.7-8.5-2.1c-5.3-2.6-8.7-6.8-10.1-12.4c-3.5-14.1,7.3-33.9,13.2-43.4
			c-14.3,4.8-36.9,6.1-49.4-2.5c-7-4.9-10.1-12.4-8.9-21.7c0.8-6.6,4-11.8,9.4-15.5c12.5-8.6,34.1-6.9,46.1-5
			c-8.5-7.7-13.8-18.1-13.4-27.4c0.2-5.4,2.5-12.9,12-17.6c1-0.5,2.2-0.1,2.7,0.9c0.5,1,0.1,2.2-0.9,2.7c-6.2,3.1-9.5,8-9.8,14.2
			c-0.4,10.1,7.4,22.3,18.5,29.1c0.8,0.5,1.2,1.6,0.8,2.5s-1.4,1.4-2.3,1.2c-0.4-0.1-35.4-8.3-51.5,2.8c-4.4,3.1-6.9,7.2-7.7,12.7
			c-1,7.8,1.4,13.9,7.2,17.9c13.1,9.1,39.7,5.8,51.5-0.3c0.8-0.4,1.8-0.2,2.4,0.5c0.6,0.7,0.7,1.7,0.1,2.5
			c-0.2,0.3-20.5,28.6-16.3,45.7c1.1,4.4,3.7,7.6,8,9.7c4.3,2.1,8.3,2.3,12.4,0.4c16.2-7.3,25.7-42.8,25.8-43.2
			c0.2-0.8,0.9-1.4,1.6-1.5c0.8-0.1,1.6,0.3,2,0.9c0.1,0.1,9.1,14.7,23.5,17.9c7.7,1.7,15.7-0.1,23.7-5.5c0.9-0.6,2.2-0.4,2.8,0.6
			c0.6,0.9,0.4,2.2-0.6,2.8c-9,6-18,8-26.8,6c-11.5-2.6-19.7-11.2-23.5-16.2c-3.1,10-12.2,35.2-26.8,41.8
			C1345.7,744.4,1343.3,744.9,1340.8,744.9z"/>
	</g>
	<g>
		<path d="M1251.6,622.6c-3.8,0-7.3-1.1-10.6-3.3c-11-7.4-16.1-25.1-18-33.4c-6.2,8-21.9,26.1-35.8,26.9c-4.9,0.3-9.1-1.5-12.6-5.4
			c-11.8-13.1,6-36.9,13.2-45.5c-5.4-0.6-15.1-2.9-24.7-11.3c-0.8-0.7-0.9-2-0.2-2.8c0.7-0.8,2-0.9,2.8-0.2
			c12.8,11.3,26,10.5,26.1,10.5c0.8-0.1,1.6,0.4,1.9,1.1s0.2,1.6-0.3,2.2c-0.1,0.1-7.2,7.8-12.7,17.2c-4.8,8.2-9.3,19.4-3.3,26.1
			c2.6,3,5.7,4.3,9.4,4.1c15.6-0.9,35.3-28.6,35.5-28.9c0.5-0.7,1.3-1,2.1-0.8c0.8,0.2,1.4,0.8,1.5,1.6c0,0.3,4.3,26.6,17.1,35.2
			c3.8,2.5,7.9,3.2,12.4,2.1c4-1,6.8-3.1,8.4-6.6c6.6-14-7.6-43.3-7.7-43.6c-0.4-0.8-0.2-1.7,0.4-2.3c0.6-0.6,1.5-0.8,2.3-0.4
			c0.3,0.1,27.6,12.1,38.5-4.3c0.6-0.9,1.9-1.2,2.8-0.6c0.9,0.6,1.2,1.9,0.6,2.8c-9.9,14.9-29.8,10.5-38.9,7.5
			c3.9,9.2,11.5,30.3,5.7,42.6c-2.1,4.6-5.9,7.5-11.1,8.8C1254.9,622.3,1253.2,622.6,1251.6,622.6z"/>
	</g>
	<g>
		<path d="M1229.1,556.1c-3.9,0-7.6-1-9.3-2.7c-3-3-4-7.1-2.8-10.7c1.2-3.6,4.6-6.1,9-6.7c6.2-0.8,11.6,0.7,14.4,3.8
			c1.4,1.6,2.8,4.4,1.8,8.6c-0.9,3.4-3.6,5.9-7.7,7C1232.8,555.9,1230.9,556.1,1229.1,556.1z M1229.1,539.8c-0.9,0-1.8,0.1-2.7,0.2
			c-2.9,0.4-4.9,1.8-5.7,4c-0.7,2.2,0,4.7,1.8,6.6c1.1,1.1,6.3,2.3,10.8,1c1.9-0.5,4.3-1.6,4.9-4.1c0.5-2.1,0.2-3.7-0.9-5
			C1235.9,540.8,1232.8,539.8,1229.1,539.8z"/>
	</g>
	<g>
		<path d="M1378.4,672.6c-3,0-5.2-0.9-6.7-1.7c-4.8-2.6-7.9-8.1-7.8-13.9c0.1-5.2,2.8-9.5,7.3-11.8c1-0.5,2.2-0.1,2.7,0.9
			c0.5,1,0.1,2.2-0.9,2.7c-4.4,2.2-5.1,6.2-5.1,8.3c-0.1,4.2,2.2,8.4,5.7,10.3c3.9,2.1,8.8,1.4,14-2.1c0.9-0.6,2.2-0.4,2.8,0.6
			c0.6,0.9,0.4,2.2-0.6,2.8C1385.4,671.6,1381.5,672.6,1378.4,672.6z"/>
	</g>
</g>
<g id="woman">
	<path d="M350.1,804.2c-10.9-3.9-46.6-11.9-47-12l-0.2-0.1l0.1-0.2c13.2-32.1,31.7-40.7,40.5-40.7c1.4,0,2.6,0.2,3.7,0.5
		c0.3,0.2,7.1,4.3,8.1,20.2s-5,31.9-5,32.1l-0.1,0.2H350.1z"/>
	<path class="st2" d="M476.2,912.2c-21.7,0-47.2-0.4-74.3-0.9c-24.7-0.4-50.3-0.8-73.5-0.9h-0.1l-0.1-0.1c0,0-2.3-2.9-4.3-8.8
		c-1.8-5.4-3.5-14.6-2-27.6c1.7-13.8,7.4-24.8,13.5-36.5c5.1-9.8,10.9-20.3,15-33.6c11.3-44.5-3.2-52.1-3.2-52.1
		c8.5,2.8,77.5,45.4,84.5,49.7c-2.4-5.4-19.5-45.6-16.7-84.5v-0.2c0-0.2,3.1-23.9,10-32.9l0.1-0.1h0.1c0.1,0,0.2,0,0.3,0
		c3.1,0,12.1-6.2,21.6-12.8c11.6-8.1,23.7-16.4,28.9-16.4c0.5,0,0.9,0.1,1.2,0.2c38.8,14.5,59.8,81.4,60,82
		c28.8,59.3,35.5,89.9,36.1,105.1c0.8,22-3.7,37.3-14.2,48.3C544.7,905.2,518.3,912.2,476.2,912.2z"/>
	<path d="M448,839c-28.7-8.7-53.6-14.7-53.9-14.8l-0.2-0.1l0.1-0.2c13.2-32.1,31.7-40.7,40.5-40.7c1.4,0,2.6,0.2,3.7,0.5
		c0.2,0.1,8.7,3.3,11.7,15.2c5,19.8-1.6,39.6-1.7,39.8v0.2L448,839z"/>
	<path d="M415.1,717c-16.7-3.6-28.6-8.6-35.3-15c-5.8-5.5-6.4-10.8-6-14.3c0-0.2,1.3-9,19.2-10.2c2-0.1,4.2-0.2,6.5-0.2
		c12.9,0,25.4,6.6,25.5,6.6l0.3,0.1l-0.2,0.3c-6.9,8.9-9.9,32.5-9.9,32.7v0.2L415.1,717z"/>
	<path class="st1" d="M149.1,959.5c-2,0-4-0.1-6-0.3h-0.2l25.7-95.9h0.1c45.1-7,83-36.1,101.2-78l0.1-0.1h0.2
		c18.7,3.3,32.9,6.6,33,6.6c0.4,0.1,36.1,8,47,12l0.2,0.1l-0.1,0.2c-6,21.2-9.6,40.6-13.3,61.3l-0.7,3.7c-4,21.7-7.7,41.1-7.8,41.2
		v0.2h-0.2c-3.1,0-6.2,0-9.3,0c-28.2,0-48.5,0.6-61.9,1.8c-33.2,3-50.4,16.6-65.5,28.7c-5.2,4.2-10.2,8.1-15.4,11.3
		C168,957,158.6,959.5,149.1,959.5z"/>
	<path class="st1" d="M240.1,991.5c-2,0-4-0.1-6-0.3h-0.2l26.2-97.8h0.1c42.5-8.4,78.3-37.2,95.7-76.9l0.1-0.1h0.2
		c21.1,3.5,37.9,7.4,38.1,7.5s25.2,6.1,53.9,14.8h0.1v0.1c0.1,9.2-5.1,21.8-10.5,35.2c-4.3,10.5-8.7,21.3-11.4,32.1
		c-3.1,12.5-3.4,25.3-1,37.9v0.2H351c-2.1,0-4.2,0.1-6.3,0.4c-30.9,3.6-47.4,16.7-62,28.3c-5.2,4.2-10.2,8.1-15.4,11.3
		C259,989,249.6,991.5,240.1,991.5z"/>
	<g>
		<path d="M255.5,913.5c-0.2,0-0.3,0-0.5-0.1c-1.1-0.3-1.7-1.4-1.4-2.4l4.8-18c0.2-0.7,0.8-1.3,1.5-1.4
			c19.3-3.8,37.9-12.1,53.7-24.1c0.9-0.7,2.1-0.5,2.8,0.4c0.7,0.9,0.5,2.1-0.4,2.8c-16,12.1-34.6,20.6-54.1,24.6l-4.5,16.8
			C257.2,912.9,256.4,913.5,255.5,913.5z"/>
	</g>
	<path class="st2" d="M425,944.2V944c-2.4-12.7-2.1-25.5,1-38.1c2.8-11.3,7-22,11-32.3c4.8-12.2,9.2-23.7,10.8-34.7
		c6.4-37.3-1.8-52.1-9.6-55.1c8.4,2.8,67.1,28.5,74.3,31.7c-2.9-3.7-18.4-24.1-38.5-54.4c-17.3-26.1-26.4-65-11.6-84.7l0.1-0.1
		l131.8,28.6v0.1c0.7,1.2,68,116.7,70,169.1c0.7,18.9-4.5,34.3-15.4,45.7c-15.7,16.3-43.2,24.5-81.8,24.5L425,944.2L425,944.2z"/>
	<path d="M179,824.5l13-48.7h0.2c21.2,0.8,46.7,3.9,78,9.4h0.3l-0.1,0.2c-10.3,23.7-27.2,43.7-48.8,57.9l-0.1,0.1L179,824.5z"/>
	<path d="M270.6,854.1l12.4-46.3h0.2c32.5,2,49.2,4.6,73,8.5h0.3l-0.1,0.2c-9.1,20.7-23.4,38.9-41.4,52.6l-0.1,0.1L270.6,854.1z"/>
	<ellipse cx="547.1" cy="417.1" rx="45" ry="45"/>
	<ellipse transform="matrix(0.3162 -0.9487 0.9487 0.3162 3.5926 703.533)" cx="489.9" cy="349.3" rx="45" ry="45"/>
	<g>
		<path class="st4" d="M540.9,534.5c-12.9,0-23.3-10.5-23.3-23.3s10.5-23.3,23.3-23.3s23.3,10.5,23.3,23.3S553.8,534.5,540.9,534.5z
			"/>
		<path d="M540.9,489.8c11.8,0,21.3,9.6,21.3,21.3c0,11.7-9.6,21.3-21.3,21.3s-21.3-9.6-21.3-21.3S529.2,489.8,540.9,489.8
			 M540.9,485.8c-14,0-25.3,11.3-25.3,25.3s11.3,25.3,25.3,25.3s25.3-11.3,25.3-25.3C566.2,497.2,554.9,485.8,540.9,485.8
			L540.9,485.8z"/>
	</g>
	<g>
		<path d="M536.4,515.2c-1,0-1.9-0.7-2-1.7c-0.1-1.1,0.6-2.1,1.7-2.2l17.8-2.3c1.1-0.1,2.1,0.6,2.2,1.7c0.1,1.1-0.6,2.1-1.7,2.2
			l-17.8,2.3C536.6,515.2,536.5,515.2,536.4,515.2z"/>
	</g>
	<g>
		<path class="st4" d="M585.1,551.5c-16.3,0-27.3-12.2-30.3-33.4c-7.4-53.5,5.5-69.6,28.7-78.3c0.1,0,10.8-3.7,24.2-3.7
			c15.1,0,27.5,4.5,36.8,13.3c13.4,12.7,7.7,43.8-13.1,72.6C618.1,540.4,600.7,551.5,585.1,551.5L585.1,551.5z"/>
		<path d="M607.8,438c14.6,0,26.5,4.3,35.5,12.8c5.8,5.5,7.8,15.3,5.8,27.7c-2.2,13.3-9,28.3-19.1,42.2
			c-12.9,17.7-30,28.7-44.8,28.7c-15.2,0-25.5-11.5-28.3-31.7c-7.2-52.2,5.1-67.8,27.4-76.1C584.8,441.5,595,438,607.8,438
			 M607.8,434c-14,0-24.9,3.9-24.9,3.9c-25.9,9.6-37.2,28.9-30,80.4c3.3,24,16.4,35.1,32.3,35.1c15.5,0,33.7-10.7,48-30.4
			c21.8-30.1,26.8-62,12.9-75.2C634.4,437,619.9,434,607.8,434L607.8,434z"/>
	</g>
	<path d="M582.8,437.9c-22.5,8.4-34,24-31.9,61.7c37.3-4.5,48.5-51.3,48.5-51.3c22.3,29.3,52.5,35.9,52.5,35.9
		c3.7-15.6,1.9-28.9-5.9-36.3C621.2,424.4,582.8,437.9,582.8,437.9z"/>
	<g>
		<path d="M613.5,513.4c-0.9,0-1.7-0.6-2-1.6c-0.2-1.1,0.4-2.1,1.5-2.4c1.4-0.3,2.8-1,3.9-2.1c1.7-1.8,3.2-6.9,4.9-16.3
			c0.2-1.1,1.2-1.8,2.3-1.6c1.1,0.2,1.8,1.2,1.6,2.3c-2,10.8-3.7,15.9-6,18.4c0,0-0.1,0.1-0.1,0.1c-1.7,1.5-3.7,2.6-5.8,3.1
			C613.8,513.4,613.6,513.4,613.5,513.4z"/>
	</g>
	<g>
		<path d="M605.8,494.5c-0.2,0-0.4,0-0.6-0.1c-1.1-0.3-1.6-1.5-1.3-2.5l0.8-2.5c0.3-1.1,1.5-1.6,2.5-1.3c1.1,0.3,1.6,1.5,1.3,2.5
			l-0.8,2.5C607.4,494,606.6,494.5,605.8,494.5z"/>
	</g>
	<g>
		<path d="M635.1,497c-0.2,0-0.4,0-0.6-0.1c-1.1-0.3-1.6-1.5-1.3-2.5l0.8-2.5c0.3-1.1,1.5-1.6,2.5-1.3c1.1,0.3,1.6,1.5,1.3,2.5
			l-0.8,2.5C636.7,496.5,635.9,497,635.1,497z"/>
	</g>
	<g>
		<path d="M603.3,524c-0.1,0-0.2,0-0.3,0c-0.6-0.1-1.1-0.2-1.6-0.3c0,0-0.1,0-0.2,0c-5.6-1.5-8.9-7.3-7.4-12.8
			c0.3-1.1,1.4-1.7,2.4-1.4c1.1,0.3,1.7,1.4,1.4,2.4c-0.9,3.4,1.1,7,4.5,7.9c0.5,0.1,0.9,0.2,1.5,0.3c1.1,0.2,1.8,1.2,1.6,2.3
			C605.1,523.3,604.3,524,603.3,524z"/>
	</g>
	<g>
		<path class="st4" d="M778.8,829.1c-6.9,0-15.6-2.3-25.9-6.9c-26.2-11.8-49.5-28.8-68.1-42.4l-2.2-1.6l-8.1-16.9l44.3-59.7
			l11.9,5.3c12.4,8.8,23.6,16.2,33.4,22.8c15.3,10.2,26.4,17.6,29.4,21.6c2.2,2.9,2.9,5.3,2.2,7.2c-1.3,3.4-6.9,4.6-7,4.6l-4.9,1
			l4.3,2.7c0.1,0.1,13.1,8.2,23,14c7.2,4.2,10.8,9.4,9.9,14c-0.5,2.7-2.7,4.9-5.2,5.3l-2.1,0.3l0.4,2.1c0,0.1,1.3,6.5-1.4,10.1
			c-1.1,1.5-2.7,2.3-4.9,2.5l-1.5,0.1l-0.3,1.5c-0.1,0.3-1.6,8.6-11.8,8.6l0,0c-0.9,0-1.9-0.1-3-0.2l-1.2-0.2l-0.7,1
			C789.5,825.8,786.9,829.1,778.8,829.1z"/>
		<path d="M719.5,704l10.3,4.6c12.3,8.7,23.5,16.2,33.3,22.7c14.6,9.7,26.1,17.4,28.9,21.2c1,1.3,2.5,3.7,1.9,5.3
			c-0.7,1.8-4.1,3.1-5.5,3.4l-9.9,2l8.5,5.3c0.1,0.1,13.1,8.2,23.1,14.1c6.3,3.7,9.7,8.2,8.9,11.9c-0.4,2.1-2.1,3.5-3.5,3.7
			l-4.2,0.6l0.9,4.2c0.3,1.5,0.8,6.1-1,8.5c-0.5,0.6-1.3,1.5-3.4,1.6l-3.1,0.3l-0.5,3c0,0.3-1.2,6.9-9.8,6.9c-0.9,0-1.8-0.1-2.7-0.2
			l-2.4-0.7l-1.3,2.2c-0.4,0.4-2.8,2.5-9.1,2.5c-6.6,0-15.1-2.3-25-6.8c-26.1-11.7-48.2-27.9-67.8-42.2l-1.8-1.3l-7.4-15.4
			L719.5,704 M718.2,699l-46,62l8.9,18.5c19.7,14.4,43.5,32.1,71.1,44.5c12.1,5.5,20.7,7.1,26.7,7.1c9.4,0,12.3-4.1,12.3-4.1
			c1.2,0.2,2.2,0.2,3.2,0.2c12.1,0,13.8-10.2,13.8-10.2c11-1,8-15,8-15c7-1,13-13-4-23c-10.1-5.9-23-14-23-14s15-3,6-15
			c-5.3-7-31-22-63.5-45L718.2,699L718.2,699z"/>
	</g>
	<path class="st1" d="M680.9,779.6c-13.1-9.4-25.8-19.7-37.8-30.4c-1.5,0.6-16.5,6.7-40.2,6.7c-21,0-42.5-4.6-63.8-13.8
		c-28.2-12-44.1-22.4-58.1-31.6c-16.5-10.8-29.5-19.3-55.8-26.3c-24.7-6-45.9-3.8-51.3,3.4c0.4-1.8,1.6-3.8,2.3-5.1
		c3.4-5.7,33.8-39.8,133.8-129.7c22.9-20.6,41.8-30.2,59.5-30.2c9.8,0,19.3,2.9,29.7,9.2c19.3,11.6,34.3,37.3,51.6,67.1
		c9.9,17,20.1,34.6,32.4,51.9c15.4,21.8,30.8,38.9,48.5,54l0.1,0.1l-50.9,74.8V779.6z"/>
	<g>
		<path d="M785.2,767c-0.4,0-0.7-0.1-1-0.3l-15-9c-0.9-0.6-1.3-1.8-0.7-2.7c0.6-0.9,1.8-1.3,2.7-0.7l15,9c0.9,0.6,1.3,1.8,0.7,2.7
			C786.5,766.7,785.9,767,785.2,767z"/>
	</g>
	<g>
		<path d="M814.2,803c-0.3,0-0.5,0-0.8-0.1c-21.9-9-63.6-37-65.4-38.2c-0.9-0.6-1.2-1.9-0.5-2.8s1.9-1.2,2.8-0.5
			c0.4,0.3,43.1,29,64.6,37.8c1,0.4,1.5,1.6,1.1,2.6C815.7,802.5,815,803,814.2,803z"/>
	</g>
	<g>
		<path d="M806.5,817.5c-0.1,0-0.2,0-0.3,0c-10.8-1.7-53.9-28.5-68.2-37.8c-0.9-0.6-1.2-1.8-0.6-2.8c0.6-0.9,1.8-1.2,2.8-0.6
			c21.8,14.2,58.1,35.8,66.6,37.2c1.1,0.2,1.8,1.2,1.7,2.3C808.3,816.8,807.5,817.5,806.5,817.5z"/>
	</g>
	<g>
		<path d="M791.2,827c-0.2,0-0.3,0-0.5-0.1c-13.1-3.5-38.6-19.5-53.8-29c-2.6-1.6-4.9-3.1-6.8-4.2c-0.9-0.6-1.2-1.8-0.7-2.8
			c0.6-0.9,1.8-1.2,2.8-0.7c1.9,1.2,4.2,2.6,6.8,4.2c15,9.4,40.2,25.2,52.7,28.5c1.1,0.3,1.7,1.4,1.4,2.4
			C792.9,826.4,792.1,827,791.2,827z"/>
	</g>
	<g>
		<path d="M643.2,751c-0.5,0-0.9-0.2-1.3-0.5c-40.8-34.8-70.1-84-70.4-84.5c-0.6-1-0.2-2.2,0.7-2.7c1-0.6,2.2-0.2,2.7,0.7
			c0.3,0.5,29.3,49.1,69.6,83.5c0.8,0.7,0.9,2,0.2,2.8C644.3,750.8,643.8,751,643.2,751z"/>
	</g>
	<g>
		<path d="M484.2,643c-0.4,0-0.8-0.1-1.1-0.3c-0.2-0.2-24.8-16.5-53.1-13.4c-1.1,0.1-2.1-0.7-2.2-1.8c-0.1-1.1,0.7-2.1,1.8-2.2
			c29.8-3.3,54.7,13.3,55.7,14c0.9,0.6,1.1,1.9,0.5,2.8C485.5,642.7,484.8,643,484.2,643z"/>
	</g>
	<g>
		<path d="M506.2,612c-0.4,0-0.8-0.1-1.1-0.3c-0.2-0.1-19.1-12.7-42.6-13.8c-1.1,0-2-1-1.9-2.1s1-2,2.1-1.9
			c24.7,1.1,43.8,13.9,44.6,14.4c0.9,0.6,1.2,1.9,0.5,2.8C507.5,611.7,506.8,612,506.2,612z"/>
	</g>
	<g>
		<path d="M359.2,947c-1.1,0-2-0.9-2-2v-32c0-1.1,0.9-2,2-2s2,0.9,2,2v32C361.2,946.1,360.3,947,359.2,947z"/>
	</g>
	<g>
		<path d="M331.5,948.5c-0.9,0-1.6-0.5-1.9-1.4l-9.9-31.5c-0.3-1.1,0.3-2.2,1.3-2.5c1.1-0.3,2.2,0.3,2.5,1.3l9.9,31.5
			c0.3,1.1-0.3,2.2-1.3,2.5C331.9,948.5,331.7,948.5,331.5,948.5z"/>
	</g>
	<g>
		<path d="M231.3,919.5c-0.8,0-1.6-0.5-1.9-1.4l-10-31.5c-0.3-1.1,0.2-2.2,1.3-2.5c1.1-0.3,2.2,0.2,2.5,1.3l10,31.5
			c0.3,1.1-0.2,2.2-1.3,2.5C231.7,919.5,231.5,919.5,231.3,919.5z"/>
	</g>
	<g>
		<path d="M681,781.5c-0.4,0-0.8-0.1-1.1-0.3c-0.9-0.6-1.1-1.9-0.5-2.8l50.7-74.5c0.6-0.9,1.9-1.2,2.8-0.5c0.9,0.6,1.1,1.9,0.5,2.8
			l-50.7,74.5C682.3,781.2,681.6,781.5,681,781.5z"/>
	</g>
	<g>
		<path d="M626.8,735.8c-0.5,0-0.9-0.2-1.3-0.5c-0.8-0.7-0.9-2-0.2-2.8l63.3-73.4c0.7-0.8,2-0.9,2.8-0.2s0.9,2,0.2,2.8l-63.3,73.4
			C627.9,735.6,627.4,735.8,626.8,735.8z"/>
	</g>
	<circle cx="672.2" cy="736" r="12"/>
	<g>
		<path d="M573.2,844c-0.3,0-0.5-0.1-0.8-0.2c-1.3-0.5-126-55-134.8-57.9c-1-0.3-1.6-1.5-1.3-2.5c0.3-1,1.5-1.6,2.5-1.3
			c9,3,130,55.8,135.2,58.1c1,0.4,1.5,1.6,1,2.6C574.7,843.6,574,844,573.2,844z"/>
	</g>
	<g>
		<path d="M513.2,818c-0.6,0-1.2-0.3-1.6-0.8c-0.2-0.2-16.8-21.5-39.1-55.1c-8.9-13.5-15-28.5-18.1-44.6c-0.2-1.1,0.5-2.1,1.6-2.3
			c1.1-0.2,2.1,0.5,2.3,1.6c3,15.6,8.9,30.1,17.5,43.2c22.2,33.4,38.7,54.7,38.9,54.9c0.7,0.9,0.5,2.1-0.3,2.8
			C514.1,817.9,513.6,818,513.2,818z"/>
	</g>
</g>
</svg>
