<?xml version="1.0" encoding="utf-8"?><svg version="1.1" id="Layer_1" xmlns="http://www.w3.org/2000/svg" xmlns:xlink="http://www.w3.org/1999/xlink" x="0px" y="0px" viewBox="0 0 55.32 38.52" style="enable-background:new 0 0 55.32 38.52" xml:space="preserve"><style type="text/css">.st0{fill:#ED2939;} .st1{fill:#FFFFFF;} .st2{fill:none;stroke:#CCCCCC;stroke-width:0.1199;stroke-miterlimit:2.6131;}</style><g><path class="st0" d="M0.06,19.26h55.2V3.09c0-1.66-1.35-3.02-3.01-3.03H3.07C1.41,0.07,0.06,1.43,0.06,3.09V19.26L0.06,19.26z"/><path class="st1" d="M3.07,38.46h49.17c1.66-0.01,3.01-1.37,3.01-3.03V19.26H0.06v16.17C0.06,37.09,1.41,38.45,3.07,38.46 L3.07,38.46z"/><path class="st1" d="M18.62,9.66c0,3.99-3.23,7.22-7.22,7.22c-3.99,0-7.22-3.23-7.22-7.22c0-3.99,3.23-7.22,7.22-7.22 C15.38,2.44,18.62,5.67,18.62,9.66L18.62,9.66L18.62,9.66z"/><path class="st0" d="M20.88,9.66c0,3.77-3.06,6.82-6.82,6.82c-3.77,0-6.82-3.06-6.82-6.82c0-3.77,3.06-6.82,6.82-6.82 C17.83,2.84,20.88,5.89,20.88,9.66L20.88,9.66L20.88,9.66z"/><polygon class="st1" points="12.29,9.83 11.31,9.08 10.33,9.83 10.71,8.62 9.72,7.87 10.94,7.88 11.31,6.66 11.68,7.88 12.89,7.87 11.91,8.62 12.29,9.83"/><polygon class="st1" points="19.98,9.83 19,9.08 18.02,9.83 18.4,8.62 17.42,7.87 18.63,7.88 19,6.66 19.38,7.88 20.59,7.87 19.61,8.62 19.98,9.83"/><polygon class="st1" points="16.14,6.98 15.16,6.23 14.18,6.98 14.56,5.77 13.57,5.02 14.79,5.02 15.16,3.81 15.53,5.02 16.75,5.02 15.76,5.76 16.14,6.98"/><polygon class="st1" points="13.73,14.4 12.75,13.65 11.77,14.4 12.15,13.19 11.16,12.44 12.38,12.45 12.75,11.23 13.12,12.45 14.33,12.44 13.35,13.19 13.73,14.4"/><polygon class="st1" points="18.54,14.4 17.56,13.65 16.58,14.4 16.96,13.19 15.98,12.44 17.19,12.45 17.56,11.23 17.94,12.45 19.15,12.44 18.17,13.19 18.54,14.4"/><path class="st2" d="M3.09,0.06h49.13c1.67,0,3.03,1.36,3.03,3.03v32.33c0,1.67-1.36,3.03-3.03,3.03H3.09 c-1.67,0-3.03-1.37-3.03-3.03V3.09C0.06,1.42,1.42,0.06,3.09,0.06L3.09,0.06z"/></g></svg>